<?xml version="1.0" standalone="no"?>
<!DOCTYPE svg PUBLIC "-//W3C//DTD SVG 20010904//EN"
 "http://www.w3.org/TR/2001/REC-SVG-20010904/DTD/svg10.dtd">
<svg version="1.0" xmlns="http://www.w3.org/2000/svg"
 width="1029.000000pt" height="1280.000000pt" viewBox="0 0 1029.000000 1280.000000"
 preserveAspectRatio="xMidYMid meet">
<g transform="translate(0.000000,1280.000000) scale(0.100000,-0.100000)"
fill="#000000" stroke="none">
<path d="M1420 11960 c-251 -31 -460 -198 -546 -434 -32 -89 -44 -200 -44
-407 l0 -177 -61 -21 c-136 -46 -253 -132 -300 -223 -31 -57 -32 -155 -2 -213
20 -38 100 -120 153 -158 l25 -17 -30 -22 c-16 -13 -56 -48 -87 -79 -111 -111
-114 -242 -7 -363 16 -19 50 -47 74 -63 25 -15 45 -32 44 -38 0 -5 -28 -30
-62 -55 -70 -51 -123 -128 -133 -195 -11 -75 18 -148 84 -214 31 -31 71 -66
87 -79 l30 -22 -25 -17 c-14 -9 -53 -44 -87 -78 -50 -49 -64 -70 -78 -118 -32
-112 11 -216 122 -297 56 -41 78 -70 54 -70 -19 0 -111 -81 -141 -125 -17 -25
-36 -69 -42 -98 -21 -101 35 -210 148 -288 24 -16 44 -34 44 -38 0 -5 -18 -20
-39 -34 -202 -134 -211 -345 -20 -480 33 -22 59 -44 59 -48 0 -5 -20 -22 -44
-38 -115 -79 -169 -187 -148 -291 15 -69 51 -121 127 -183 33 -26 61 -51 63
-56 1 -4 -20 -22 -47 -40 -95 -61 -146 -146 -145 -241 1 -97 52 -178 155 -247
21 -14 39 -29 39 -34 0 -4 -20 -22 -44 -38 -105 -72 -166 -183 -152 -273 13
-81 72 -165 151 -215 25 -15 45 -32 44 -38 0 -5 -28 -30 -62 -55 -111 -81
-154 -186 -122 -295 13 -47 28 -69 79 -119 34 -33 73 -69 86 -79 l25 -17 -25
-17 c-14 -9 -53 -44 -87 -78 -50 -49 -64 -70 -78 -118 -32 -112 11 -216 122
-297 34 -25 62 -49 62 -55 1 -5 -19 -23 -44 -38 -201 -127 -200 -349 1 -488
24 -16 44 -34 44 -38 0 -5 -17 -20 -37 -33 -59 -40 -114 -99 -136 -148 -29
-63 -28 -151 2 -209 25 -48 99 -124 142 -147 16 -8 29 -18 29 -23 0 -4 -27
-29 -60 -54 -76 -59 -116 -114 -131 -181 -23 -105 19 -196 131 -283 33 -25 60
-50 60 -54 0 -5 -13 -15 -29 -23 -43 -23 -117 -99 -142 -147 -31 -59 -32 -157
-2 -214 22 -43 79 -105 119 -131 13 -9 24 -22 24 -29 0 -7 -27 -29 -60 -49
-105 -65 -160 -152 -160 -253 0 -112 78 -210 228 -285 74 -37 96 -43 148 -43
l61 0 6 -200 c6 -222 16 -276 72 -390 86 -176 237 -298 435 -352 62 -17 247
-18 3805 -18 3558 0 3743 1 3805 18 198 54 349 176 435 352 76 153 69 -35 75
2140 l5 1950 68 7 c38 3 79 14 93 22 l24 16 0 436 c0 412 -1 436 -17 428 -10
-4 -53 -9 -96 -12 -78 -4 -79 -4 -75 19 3 21 10 25 63 30 67 6 100 20 115 49
9 17 16 1160 6 1160 -2 0 -17 -7 -32 -15 -17 -9 -56 -15 -91 -15 -63 0 -63 0
-63 29 0 28 2 29 60 36 35 4 73 16 92 29 l33 22 3 581 2 582 -36 -15 c-20 -8
-62 -16 -93 -17 l-56 -2 -3 33 c-3 31 -2 32 35 32 51 0 103 27 130 69 l23 34
0 1069 c0 1165 3 1100 -56 1147 -17 14 -41 21 -68 21 -22 0 -46 4 -52 8 -7 4
-13 68 -17 167 -6 172 -20 242 -66 340 -81 173 -228 297 -421 357 l-75 23
-3705 1 c-2038 1 -3734 -2 -3770 -6z m-590 -1371 c0 -160 3 -156 -89 -110 -62
32 -111 81 -111 111 0 32 58 88 123 119 34 16 65 27 69 25 4 -3 8 -68 8 -145z
m0 -558 c0 -77 -4 -142 -8 -145 -15 -9 -126 49 -160 83 -39 39 -41 69 -7 110
25 29 135 91 162 91 10 0 13 -30 13 -139z m0 -566 c0 -115 -3 -145 -13 -145
-27 0 -137 62 -162 91 -34 41 -32 71 7 110 28 28 138 89 161 89 4 0 7 -65 7
-145z m0 -565 c0 -127 -2 -140 -17 -140 -57 1 -183 94 -183 135 0 35 45 82
109 115 94 48 91 52 91 -110z m0 -565 c0 -99 -3 -145 -11 -145 -27 0 -140 63
-163 91 -32 38 -33 66 -3 102 22 27 140 96 165 97 9 0 12 -36 12 -145z m0
-565 c0 -161 2 -159 -88 -114 -57 28 -112 84 -112 114 0 29 57 85 115 114 87
44 85 46 85 -114z m0 -565 c0 -99 -3 -145 -11 -145 -6 0 -42 16 -80 36 -115
61 -137 110 -74 169 34 32 127 84 153 85 9 0 12 -35 12 -145z m0 -566 c0 -160
3 -156 -89 -110 -62 32 -111 81 -111 111 0 32 58 88 123 119 34 16 65 27 69
25 4 -3 8 -68 8 -145z m0 -558 c0 -77 -4 -142 -8 -145 -15 -9 -126 49 -160 83
-39 39 -41 69 -7 110 25 29 135 91 162 91 10 0 13 -30 13 -139z m0 -566 c0
-115 -3 -145 -13 -145 -27 0 -137 62 -162 91 -35 42 -32 68 13 111 32 31 131
88 155 88 4 0 7 -65 7 -145z m0 -565 c0 -159 2 -156 -80 -119 -58 26 -120 86
-120 116 0 31 45 77 110 113 92 50 90 52 90 -110z m0 -565 c0 -115 -3 -145
-13 -145 -27 0 -137 62 -162 91 -31 38 -32 66 -2 102 22 27 140 96 165 97 9 0
12 -36 12 -145z m0 -565 c0 -161 2 -159 -88 -114 -57 28 -112 84 -112 114 0
29 57 85 115 114 87 44 85 46 85 -114z m0 -565 c0 -96 -4 -145 -11 -145 -23 0
-121 54 -154 84 -46 44 -46 78 0 121 34 32 127 84 153 85 9 0 12 -35 12 -145z
m0 -565 c0 -161 3 -157 -89 -111 -62 32 -111 81 -111 111 0 30 56 86 112 114
90 45 88 47 88 -114z m0 -565 c0 -91 -3 -165 -7 -165 -13 0 -112 39 -153 60
-37 19 -100 82 -100 101 0 27 34 69 78 98 46 29 141 69 170 70 9 1 12 -38 12
-164z"/>
</g>
</svg>
